<svg width="26" height="24" viewBox="0 0 26 24" fill="none" xmlns="http://www.w3.org/2000/svg">
<path d="M16.6176 0.496237C16.4161 0.503314 16.2216 0.535157 16.0191 0.579384L2.32234 3.50898C0.702179 3.85749 -0.311426 5.29221 0.08656 6.71543L2.00697 13.5989C2.12334 14.0089 2.34992 14.3885 2.66775 14.7058C2.98557 15.0232 3.38537 15.269 3.83368 15.4228V13.7643C3.83368 11.3257 6.09363 9.34163 8.87148 9.34163H21.5607L19.6715 2.51387C19.5044 1.92036 19.1093 1.39559 18.5528 1.02805C17.9963 0.660508 17.3135 0.47268 16.6176 0.496237ZM17.8448 4.31126L18.664 7.324L15.2634 8.04224L14.4131 5.05692L17.8448 4.31126ZM8.87148 11.1107C7.20296 11.1107 5.8488 12.2995 5.8488 13.7643V20.8406C5.8488 22.3054 7.20296 23.4943 8.87148 23.4943H22.9773C24.6458 23.4943 26 22.3054 26 20.8406V13.7643C26 12.2995 24.6458 11.1107 22.9773 11.1107H8.87148ZM8.87148 12.5207H22.9773C23.7541 12.5207 24.3939 13.0823 24.3939 13.7643V14.6489H7.45485V13.7643C7.45485 13.0823 8.09465 12.5207 8.87148 12.5207ZM7.45485 17.3025H24.3939V20.8406C24.3939 21.5226 23.7541 22.0843 22.9773 22.0843H8.87148C8.49642 22.0824 8.13732 21.9508 7.87211 21.718C7.60689 21.4852 7.45696 21.1699 7.45485 20.8406V17.3025Z" fill="white"/>
</svg>
