<svg width="582" height="749" viewBox="0 0 582 749" fill="none" xmlns="http://www.w3.org/2000/svg">
<path d="M1 40C1 17.9087 18.9086 0 41 0H368.34C381.26 0 393.385 6.24114 400.893 16.7565L469.118 112.308C474.304 119.572 481.772 124.893 490.332 127.423L553.339 146.049C570.336 151.073 582 166.684 582 184.408V708C582 730.091 564.091 748 542 748H131.041C110.876 748 93.8636 732.99 91.3521 712.982L88.3116 688.758C86.6305 675.366 78.3085 663.724 66.1806 657.8L23.4425 636.921C9.70954 630.213 1 616.265 1 600.981V40Z" fill="#C37C08" fill-opacity="0.66"/>
<path d="M1 377.587V418.121C1 418.121 55.5024 370.256 114.197 358.613C172.892 346.971 204.569 344.162 230.655 349.127C256.742 354.092 352.704 447.443 368.542 475.041C384.38 502.639 381.119 539.723 388.107 571.202C395.094 602.681 381.119 748 381.119 748H492.919C492.919 748 501.304 625.104 498.975 571.202C496.646 517.3 468.23 425.452 468.23 425.452C468.23 425.452 492.919 405.184 521.801 404.322C550.682 403.46 580.962 434.938 580.962 434.938V397.854C580.962 397.854 584.222 388.367 530.652 341.796C477.081 295.225 468.23 285.738 425.839 271.077C383.449 256.416 317.3 247.791 317.3 247.791C317.3 247.791 247.425 237.011 191.526 247.791C135.626 258.572 117.924 266.562 78.794 285.738C39.6641 304.914 1 377.587 1 377.587Z" fill="#FCA311" fill-opacity="0.8" stroke="#FCA311"/>
<path d="M91 582C91 533.951 129.951 495 178 495C226.049 495 265 533.951 265 582V748H131C108.909 748 91 730.091 91 708V582Z" fill="#FCA311" fill-opacity="0.8"/>
</svg>
