<svg width="14" height="16" viewBox="0 0 14 16" fill="none" xmlns="http://www.w3.org/2000/svg">
<path d="M5.85629 2.21527C6.88202 2.21527 7.81112 2.69554 8.4838 3.4717L6.59958 5.6458H11.0593V0.5L9.53554 2.25815C8.59529 1.17324 7.29454 0.5 5.85629 0.5C3.23622 0.5 1.07327 2.73842 0.712783 5.6458H2.21421C2.55984 3.69039 4.05755 2.21527 5.85629 2.21527ZM10.0484 10.0497C10.5427 9.27359 10.8772 8.35592 10.9998 7.36106H9.49837C9.15275 9.31647 7.65504 10.7916 5.85629 10.7916C4.83056 10.7916 3.90146 10.3113 3.22879 9.53516L5.11301 7.36106H0.65332V12.5069L2.17705 10.7487C3.1173 11.8336 4.41804 12.5069 5.85629 12.5069C7.00838 12.5069 8.07127 12.0695 8.93348 11.3362L12.5458 15.5L13.6533 14.2221L10.0484 10.0497Z" fill="white"/>
</svg>
